<svg width="24" height="24" viewBox="0 0 24 24" fill="none" xmlns="http://www.w3.org/2000/svg">
<g id="Frame" clip-path="url(#clip0_1365_426)">
<path id="Vector" d="M11.69 23.9999H6.40096C5.21869 23.9999 4.29105 23.3147 3.98048 22.2117C3.95398 22.1151 3.93299 22.017 3.91757 21.9178C3.4063 21.8849 2.9257 21.6502 2.57213 21.2607C2.21857 20.8711 2.01814 20.3556 2.01101 19.8172C1.99645 18.6102 2.00112 17.3842 2.00811 16.3443C2.0151 15.1624 2.7755 14.2934 3.87678 14.1801C3.87678 13.5832 3.87678 12.9863 3.87678 12.3894C3.87678 10.9387 3.87676 9.43888 3.87968 7.96238C3.889 5.40316 5.45293 3.26282 7.76794 2.6345C8.09433 2.55284 8.42667 2.49999 8.76144 2.47649C9.0904 1.73571 9.6137 1.10899 10.2698 0.66997C10.926 0.23095 11.6877 -0.0021343 12.4656 -0.0018919H12.4848C13.2602 0.00327698 14.0187 0.237403 14.6736 0.673775C15.3286 1.11015 15.8536 1.7312 16.1889 2.46609C18.7428 2.62103 20.7444 4.57029 21.0881 7.26608C21.1153 7.5161 21.1265 7.76775 21.1214 8.01934V8.08058C21.1214 9.67772 21.1214 11.2749 21.1214 12.872V14.1807C22.0502 14.2805 22.7383 14.9058 22.9417 15.8526C22.98 16.0541 22.9966 16.2595 22.9912 16.465C22.9912 16.8171 22.9912 17.1705 22.9871 17.5128C22.9819 18.195 22.9772 18.8993 22.9999 19.5845C23.0146 19.8934 22.9695 20.2022 22.8673 20.4921C22.7652 20.7821 22.6081 21.0473 22.4056 21.2717C22.0546 21.6538 21.5812 21.8853 21.0771 21.9215C21.0689 21.9692 21.0602 22.0176 21.0485 22.0678C20.9334 22.5889 20.6614 23.057 20.273 23.4028C19.8846 23.7485 19.4006 23.9534 18.8926 23.9871C18.7901 23.9944 18.6892 23.9981 18.5919 23.9981L11.69 23.9999ZM5.69767 16.0736C5.69767 18.1319 5.69767 19.0536 5.69767 21.4315C5.69767 21.8498 5.92082 22.0807 6.32463 22.0807C8.39122 22.0807 10.4584 22.0807 12.5262 22.0807C14.5726 22.0807 16.6188 22.0807 18.6648 22.0807C19.082 22.0807 19.2935 21.8553 19.2941 21.4113C19.2941 18.9256 19.2941 17.8214 19.2941 15.7025V13.9719C18.9795 14.0494 18.6568 14.0844 18.3338 14.076H18.0943H18.0069C17.9352 14.7496 17.4487 15.2212 16.7833 15.2365C16.6324 15.2402 16.4797 15.2414 16.3171 15.2414C16.1546 15.2414 16.0036 15.2414 15.8475 15.2377C15.1651 15.2267 14.6821 14.7729 14.5941 14.0888H10.3988C10.3166 14.7625 9.82657 15.2236 9.16405 15.2371C9.0009 15.2402 8.84068 15.242 8.68627 15.242C8.52253 15.242 8.35936 15.242 8.20262 15.2365C7.54127 15.2212 7.05532 14.7515 6.98365 14.0766H6.92888C6.84614 14.0766 6.76398 14.0766 6.6824 14.0766C6.35069 14.0854 6.0193 14.049 5.6965 13.9682L5.69767 16.0736ZM3.85988 15.8109C3.822 15.8207 3.77772 15.8299 3.7311 15.8397C3.42345 15.9009 3.19502 16.2837 3.19502 16.7314V19.3579C3.19502 19.8062 3.4246 20.1871 3.73284 20.2496C3.78353 20.26 3.82783 20.2698 3.85988 20.279V15.8109ZM21.1353 20.2814C21.168 20.2723 21.2123 20.2625 21.2624 20.2521C21.5712 20.1908 21.8002 19.8087 21.8002 19.3604V16.7338C21.8002 16.2861 21.5724 15.9046 21.2641 15.8421C21.2175 15.8324 21.1738 15.8232 21.1353 15.8134V20.2814ZM16.8817 13.6902V12.3331C16.881 12.2888 16.8719 12.245 16.855 12.2044C16.8381 12.1637 16.8138 12.127 16.7834 12.0963C16.7529 12.0655 16.717 12.0414 16.6777 12.0253C16.6384 12.0092 16.5964 12.0014 16.5543 12.0024H16.0298C15.9877 12.0014 15.9457 12.0092 15.9064 12.0253C15.8671 12.0414 15.8312 12.0655 15.8008 12.0963C15.7703 12.127 15.746 12.1637 15.7291 12.2044C15.7122 12.245 15.7032 12.2888 15.7024 12.3331V13.6902C15.7032 13.7345 15.7122 13.7783 15.7291 13.8189C15.746 13.8595 15.7703 13.8963 15.8008 13.927C15.8312 13.9577 15.8671 13.9818 15.9064 13.9979C15.9457 14.0141 15.9877 14.0218 16.0298 14.0209H16.5543C16.5964 14.0215 16.6383 14.0134 16.6775 13.997C16.7167 13.9806 16.7525 13.9562 16.7827 13.9253C16.8129 13.8943 16.837 13.8574 16.8536 13.8166C16.8702 13.7759 16.879 13.7321 16.8794 13.6877L16.8817 13.6902ZM9.29169 13.6902V12.3331C9.29093 12.2888 9.28183 12.245 9.26494 12.2044C9.24806 12.1637 9.22373 12.127 9.1933 12.0963C9.16288 12.0655 9.12697 12.0414 9.08766 12.0253C9.04835 12.0092 9.00639 12.0014 8.96421 12.0024H8.43979C8.39761 12.0014 8.35565 12.0092 8.31634 12.0253C8.27703 12.0414 8.24113 12.0655 8.2107 12.0963C8.18028 12.127 8.15592 12.1637 8.13903 12.2044C8.12215 12.245 8.11307 12.2888 8.11232 12.3331V13.6902C8.11307 13.7345 8.12215 13.7783 8.13903 13.8189C8.15592 13.8595 8.18028 13.8963 8.2107 13.927C8.24113 13.9577 8.27703 13.9818 8.31634 13.9979C8.35565 14.0141 8.39761 14.0218 8.43979 14.0209H8.96421C9.00639 14.0215 9.04827 14.0134 9.08746 13.997C9.12666 13.9806 9.16238 13.9562 9.19259 13.9253C9.2228 13.8943 9.24692 13.8574 9.26352 13.8166C9.28012 13.7759 9.2889 13.7321 9.28935 13.6877L9.29169 13.6902ZM18.1654 12.1592C18.3064 12.1592 18.4457 12.1592 18.5855 12.1592C19.0412 12.1537 19.2947 11.8891 19.2981 11.4133C19.2981 11.0801 19.2981 10.7396 19.2981 10.4114C19.2981 10.2013 19.2981 8.13018 19.2981 7.90604C19.2998 7.47686 19.2253 7.05112 19.0785 6.65062C18.5645 5.24884 17.3386 4.37555 15.8784 4.37188C14.9849 4.37188 14.0899 4.37086 13.1933 4.36881H10.2723H9.29402C9.0994 4.36881 8.89721 4.37861 8.6921 4.3976C7.22431 4.53355 5.93716 5.80612 5.7606 7.29548C5.69126 7.88155 5.69359 10.2417 5.70234 11.0348C5.70234 11.1983 5.70582 11.3618 5.7064 11.5247C5.70596 11.6749 5.75869 11.8199 5.85432 11.9315C5.94996 12.0431 6.08165 12.1134 6.22382 12.1286C6.37299 12.1439 6.54022 12.1512 6.74824 12.1512C6.82341 12.1512 6.89916 12.1512 6.97491 12.1512C6.97491 12.1426 6.97491 12.1341 6.97491 12.1255C6.98424 11.3196 7.48651 10.7923 8.25682 10.7813C8.4122 10.7788 8.56759 10.7776 8.72297 10.7776C8.87622 10.7776 9.01431 10.7776 9.15182 10.7813C9.89474 10.7972 10.4029 11.3324 10.4157 12.1194V12.1451H14.5871C14.5871 12.1188 14.5871 12.0924 14.5871 12.0667C14.6133 11.3318 15.1197 10.8027 15.8183 10.7807C15.9669 10.7764 16.1196 10.7745 16.2845 10.7745C16.4267 10.7745 16.5822 10.7745 16.7594 10.7794C17.5134 10.7935 18.0075 11.3202 18.0174 12.1206C18.0174 12.1328 18.0174 12.1451 18.0174 12.1573L18.1654 12.1592ZM14.2119 2.43791C14.2263 2.43889 14.2407 2.43606 14.2537 2.42968C14.2668 2.4233 14.2782 2.41356 14.2868 2.40138C14.2953 2.38919 14.3009 2.37494 14.3029 2.35993C14.3049 2.34491 14.3032 2.32961 14.2981 2.31543C14.2355 2.19242 14.1453 2.08731 14.0353 2.00923C13.2225 1.3607 11.7629 1.3656 10.9319 2.0025C10.816 2.08193 10.7199 2.18946 10.6517 2.31605C10.6465 2.33012 10.6447 2.34535 10.6466 2.36033C10.6484 2.37531 10.6538 2.38955 10.6623 2.40175C10.6708 2.41395 10.682 2.42371 10.6951 2.43014C10.7081 2.43656 10.7224 2.43945 10.7367 2.43853L14.2119 2.43791Z" fill="#BBBFC2"/>
</g>
<defs>
<clipPath id="clip0_1365_426">
<rect width="24" height="24" fill="white"/>
</clipPath>
</defs>
</svg>
