<svg width="24" height="24" viewBox="0 0 24 24" fill="none" xmlns="http://www.w3.org/2000/svg">
<g id="Frame">
<path id="Vector" d="M3.05879 19.9998C2.91095 19.9998 2.76366 19.9998 2.61638 19.9998C2.05032 19.9924 1.68157 19.6144 1.67764 19.0377C1.67764 18.7798 1.67764 18.5253 1.67764 18.2646C1.51881 18.225 1.37436 18.1405 1.26109 18.021C1.22503 17.9826 1.19264 17.9409 1.16439 17.8963C1.09018 17.8604 1.00925 17.7824 1.007 17.6117C1.007 17.5388 1.007 17.4659 1.007 17.3936C0.998979 17.2963 0.997848 17.1985 1.00362 17.101C1.005 17.0467 1.01846 16.9934 1.04298 16.945C1.074 16.7849 1.15088 16.6376 1.26405 16.5215C1.37722 16.4054 1.52164 16.3256 1.67931 16.2921V14.2336C1.67931 13.2425 2.16724 12.5343 3.02843 12.2588V7.06019C3.02843 5.82829 3.84241 5.00057 5.05212 5H18.9616C20.173 5 20.9853 5.82772 20.9853 7.05905V12.2485C21.3734 12.3677 21.7135 12.6099 21.9555 12.9395C22.1976 13.2691 22.3288 13.6686 22.3299 14.0793V16.2847C22.5218 16.3308 22.6926 16.4415 22.8143 16.5987C22.936 16.7559 23.0015 16.9502 23 17.15C23 17.2069 23 17.2411 23 17.2638V17.2712C23 17.2712 23 17.3413 23 17.3925C23.0016 17.5927 22.9362 17.7876 22.8146 17.9454C22.6929 18.1032 22.5221 18.2147 22.3299 18.2618V18.9449C22.3299 19.6423 21.9819 19.9963 21.2984 19.9975H21.033C20.5305 19.9918 20.1971 19.7129 20.0943 19.2193L20.0763 19.1299C20.0201 18.855 19.9611 18.5749 19.9077 18.2937L4.09819 18.288C4.05659 18.5276 4.00711 18.7633 3.95933 18.9927C3.94303 19.069 3.92786 19.1436 3.91212 19.2204C3.82724 19.6343 3.58159 19.8956 3.21058 19.9741C3.16219 19.9929 3.11057 20.0016 3.05879 19.9998ZM20.5322 16.2426V14.1698C20.5322 14.0042 20.5187 13.9774 20.336 13.9774H3.67209C3.48883 13.9774 3.47533 14.0036 3.47477 14.1698C3.47477 14.8598 3.47477 15.5499 3.47477 16.2403L20.5322 16.2426ZM9.59081 12.1489C9.59081 11.8683 9.59079 11.6001 9.58461 11.332C9.58224 11.31 9.57192 11.2897 9.55562 11.275C9.53932 11.2603 9.5182 11.2522 9.49636 11.2523H6.54403C6.52883 11.253 6.51391 11.2567 6.50019 11.2634C6.48647 11.27 6.47424 11.2794 6.46421 11.291C6.44903 11.5711 6.45016 11.8535 6.45353 12.1489H9.59081ZM17.5607 12.1489C17.5607 11.8683 17.5607 11.6001 17.5546 11.332C17.5521 11.3101 17.5417 11.2898 17.5254 11.2751C17.5092 11.2604 17.4881 11.2523 17.4663 11.2523H14.5145C14.4992 11.2529 14.4842 11.2566 14.4704 11.2633C14.4566 11.2699 14.4442 11.2794 14.4341 11.291C14.419 11.5711 14.4201 11.8535 14.4235 12.1489H17.5607ZM12.623 12.1387V11.476C12.623 10.2527 13.4341 9.43008 14.6382 9.42666H17.3432C18.2212 9.42666 18.8896 9.86614 19.1876 10.5794V7.03287C19.1876 6.82907 19.1735 6.81484 18.9745 6.81484H5.04707C4.83008 6.81484 4.82221 6.82167 4.82221 7.04255V10.555C4.9689 10.2208 5.20779 9.93673 5.51017 9.73686C5.81255 9.53699 6.16551 9.42986 6.5266 9.42837H9.51041C10.4391 9.43349 11.2075 10.095 11.3385 11.0013C11.3796 11.3427 11.3952 11.6867 11.3851 12.0305C11.3851 12.0652 11.3851 12.1 11.3851 12.1347L12.623 12.1387Z" fill="#BBBFC2"/>
</g>
</svg>
