<svg width="20" height="20" viewBox="0 0 20 20" fill="none" xmlns="http://www.w3.org/2000/svg">
<g id="calendar">
<path id="Vector" d="M5 1V5" stroke="#BBBFC2" stroke-width="2" stroke-linecap="round"/>
<path id="Vector_2" d="M15 1V5" stroke="#BBBFC2" stroke-width="2" stroke-linecap="round"/>
<path id="Vector 4" d="M19 17V5C19 3.89543 18.1046 3 17 3H3C1.89543 3 0.999998 3.89543 0.999998 5V17C0.999998 18.1046 1.89543 19 3 19H17C18.1046 19 19 18.1046 19 17Z" stroke="#BBBFC2" stroke-width="2"/>
<path id="Vector_3" d="M5 10C5.55228 10 6 9.55228 6 9C6 8.44772 5.55228 8 5 8C4.44772 8 4 8.44772 4 9C4 9.55228 4.44772 10 5 10Z" fill="#BBBFC2"/>
<path id="Vector_4" d="M10 10C10.5523 10 11 9.55228 11 9C11 8.44772 10.5523 8 10 8C9.44772 8 9 8.44772 9 9C9 9.55228 9.44772 10 10 10Z" fill="#BBBFC2"/>
<path id="Vector_5" d="M15 10C15.5523 10 16 9.55228 16 9C16 8.44772 15.5523 8 15 8C14.4477 8 14 8.44772 14 9C14 9.55228 14.4477 10 15 10Z" fill="#BBBFC2"/>
<path id="Vector_6" d="M5 16C5.55228 16 6 15.5523 6 15C6 14.4477 5.55228 14 5 14C4.44772 14 4 14.4477 4 15C4 15.5523 4.44772 16 5 16Z" fill="#BBBFC2"/>
<path id="Vector_7" d="M10 16C10.5523 16 11 15.5523 11 15C11 14.4477 10.5523 14 10 14C9.44772 14 9 14.4477 9 15C9 15.5523 9.44772 16 10 16Z" fill="#BBBFC2"/>
<path id="Vector_8" d="M15 16C15.5523 16 16 15.5523 16 15C16 14.4477 15.5523 14 15 14C14.4477 14 14 14.4477 14 15C14 15.5523 14.4477 16 15 16Z" fill="#BBBFC2"/>
</g>
</svg>
