<svg width="24" height="24" viewBox="0 0 24 24" fill="none" xmlns="http://www.w3.org/2000/svg">
<g id="Frame" clip-path="url(#clip0_1365_428)">
<path id="Vector" d="M2.93021 24L2.8762 23.9772L2.83613 23.9591C2.82684 23.955 2.81812 23.9503 2.80883 23.9468C2.07313 23.7357 1.6144 23.1282 1.61266 22.3633C1.61033 21.4523 1.61033 20.5415 1.61266 19.6309V16.9849C1.61266 14.6168 1.61267 12.1685 1.61674 9.75935C1.61774 9.74534 1.61774 9.73127 1.61674 9.71725C1.60714 9.70965 1.59681 9.70299 1.58595 9.69737C0.565141 9.12784 0.0181768 8.21624 0.0112088 7.0608C0.000756883 5.79602 0.00307387 4.51135 0.00539652 3.26878C0.00539652 2.78891 0.00539652 2.30904 0.00539652 1.82916C0.00539652 1.34442 0.302679 1.00644 0.728306 1.00644H0.745148C1.16961 1.0158 1.45473 1.34501 1.45473 1.82507C1.45473 2.90333 1.45473 3.98138 1.45473 5.05925V6.15738H2.34489C2.34489 6.15738 2.34489 3.12845 2.34489 1.89407C2.34489 1.87887 2.34489 1.86367 2.34489 1.84847C2.34247 1.7768 2.34555 1.70505 2.35416 1.63387C2.37788 1.46325 2.46092 1.30663 2.5885 1.19186C2.71608 1.07708 2.87994 1.01159 3.05096 1.00703H3.07129C3.24454 1.0085 3.41162 1.07202 3.5426 1.18623C3.67357 1.30045 3.75989 1.45789 3.78609 1.63035C3.79559 1.70244 3.7991 1.77521 3.79655 1.84788V6.15738H4.96137V1.91337C4.96137 1.89641 4.96137 1.87887 4.96137 1.86133C4.95933 1.79499 4.96146 1.72858 4.96775 1.66252C4.98475 1.48554 5.06557 1.32097 5.19494 1.19996C5.32431 1.07895 5.49324 1.0099 5.66976 1.00586H5.6872C5.86644 1.00732 6.03885 1.0752 6.17155 1.19653C6.30425 1.31787 6.38793 1.48417 6.40662 1.66369C6.41244 1.7247 6.41438 1.78603 6.41243 1.8473C6.41243 1.8625 6.41243 1.8777 6.41243 1.8929V3.59156C6.41243 4.70996 6.41243 5.82837 6.41243 6.94677C6.41243 8.19869 5.87184 9.12901 4.80342 9.71316C4.80342 9.71316 4.80342 9.74473 4.80342 9.75935V14.7992C4.80342 17.3054 4.80342 19.8117 4.80342 22.3183C4.80342 23.1282 4.36328 23.7217 3.59565 23.948L3.58867 23.9515L3.55326 23.9702L3.49519 23.9994L2.93021 24ZM1.56156 7.63969C1.69512 7.99053 2.03482 8.34137 2.42851 8.49165C2.94355 8.68987 3.06142 8.86412 3.06142 9.42372V22.202C3.06142 22.2236 3.06142 22.2446 3.06142 22.2663C3.05934 22.3131 3.0603 22.3599 3.06432 22.4066C3.06797 22.442 3.08431 22.4749 3.11028 22.4991C3.13624 22.5234 3.17006 22.5372 3.20543 22.5382C3.24081 22.5374 3.27471 22.5237 3.30078 22.4996C3.32685 22.4755 3.34331 22.4426 3.34711 22.4072C3.35134 22.3603 3.35251 22.3133 3.35059 22.2663C3.35059 22.2458 3.35059 22.2248 3.35059 22.2043V9.46933C3.35059 8.85068 3.43711 8.72086 4.01138 8.47528C4.41785 8.29985 4.68962 8.03146 4.84291 7.63793L1.56156 7.63969Z" fill="#BBBFC2"/>
<path id="Vector_2" d="M22.1168 24L22.0541 23.9667C21.9914 23.9339 21.9252 23.9035 21.8555 23.8708C21.6743 23.7951 21.5032 23.6969 21.3463 23.5784C20.9891 23.286 20.8091 22.865 20.8097 22.3189C20.8097 21.4254 20.8097 20.5321 20.8097 19.639C20.8097 18.5029 20.8097 17.3282 20.8132 16.1721C20.8176 16.1379 20.8132 16.1031 20.8003 16.071C20.7875 16.039 20.7668 16.0108 20.74 15.9891C20.4834 15.7482 20.2401 15.4962 20.0363 15.2804C19.5835 14.8159 19.3318 14.1899 19.336 13.5391C19.336 12.9964 19.3302 12.4444 19.3261 11.9106C19.3145 10.492 19.3023 9.02433 19.3482 7.58003C19.4312 4.95632 20.5676 2.81969 22.7323 1.22921C22.9472 1.07075 23.1213 1 23.2967 1C23.6184 1 23.8239 1.25143 23.9499 1.4403L23.9999 1.51456V22.651L23.99 22.6879C23.8106 23.372 23.3757 23.81 22.6969 23.9901L22.6603 24H22.1168ZM22.55 3.31906C21.395 4.58267 20.8022 6.09129 20.7871 7.80632C20.7766 9.05181 20.7789 10.3207 20.7807 11.5451C20.7807 12.1883 20.7836 12.8315 20.7807 13.4701C20.7772 13.6289 20.8063 13.7867 20.8663 13.9336C20.9262 14.0805 21.0157 14.2134 21.1291 14.3238L21.3712 14.57C21.5559 14.7582 21.7469 14.953 21.9391 15.136C22.0451 15.234 22.1288 15.3539 22.1846 15.4876C22.2403 15.6212 22.2667 15.7653 22.262 15.9102C22.2573 17.5778 22.2579 19.2736 22.2585 20.9132V22.2101C22.2585 22.2306 22.2585 22.2511 22.2585 22.2715C22.2567 22.3179 22.2581 22.3644 22.2625 22.4107C22.2668 22.4453 22.2833 22.4772 22.309 22.5006C22.3347 22.524 22.3679 22.5373 22.4025 22.5382C22.4365 22.5377 22.4694 22.5252 22.4951 22.5027C22.5208 22.4802 22.5378 22.4493 22.543 22.4154C22.5486 22.3641 22.5501 22.3125 22.5476 22.261C22.5476 22.2394 22.5476 22.2177 22.5476 22.1967C22.55 16.1131 22.55 3.31906 22.55 3.31906Z" fill="#BBBFC2"/>
<path id="Vector_3" d="M11.9995 19.0099C11.1498 19.0112 10.3083 18.8427 9.52384 18.5139C8.73937 18.1852 8.02756 17.7028 7.42968 17.0948C6.82756 16.4911 6.35044 15.7729 6.02599 14.9821C5.70155 14.1912 5.53622 13.3434 5.5396 12.4877C5.54681 10.7656 6.23051 9.11635 7.44133 7.90022C8.65215 6.68409 10.2917 5.99991 12.0018 5.99714C12.852 5.99543 13.6941 6.16377 14.4792 6.49241C15.2642 6.82105 15.9767 7.30343 16.5751 7.91157C17.1773 8.51482 17.6545 9.23252 17.9789 10.023C18.3034 10.8135 18.4687 11.661 18.4652 12.5164C18.4578 14.2384 17.7741 15.8876 16.5633 17.1037C15.3525 18.3198 13.7131 19.004 12.003 19.0069L11.9995 19.0099ZM11.9943 7.45489C10.6683 7.45905 9.39782 7.99129 8.46016 8.93542C7.5225 9.87954 6.99382 11.1589 6.98953 12.4941C6.98753 13.1575 7.11617 13.8147 7.36804 14.4276C7.61991 15.0406 7.99 15.5971 8.45687 16.0651C8.92036 16.5363 9.4721 16.9101 10.0801 17.165C10.6881 17.4198 11.3403 17.5506 11.9989 17.5498C12.6578 17.5512 13.3105 17.421 13.9191 17.1666C14.5277 16.9123 15.0802 16.5389 15.5445 16.068C16.0113 15.6008 16.3816 15.045 16.6339 14.4328C16.8861 13.8205 17.0153 13.164 17.0141 12.5012C17.0118 11.1633 16.4828 9.88099 15.5432 8.93527C14.6035 7.98955 13.3298 7.45761 12.0012 7.45606L11.9943 7.45489Z" fill="#BBBFC2"/>
<path id="Vector_4" d="M12.1169 22.1522C10.3656 22.1399 8.82972 21.7049 7.42219 20.8208C7.02676 20.5728 6.99367 20.2547 7.03606 20.032C7.10109 19.6864 7.35312 19.4566 7.67887 19.4472H7.69977C7.88479 19.4517 8.06524 19.506 8.22236 19.6045C9.38892 20.3226 10.642 20.6869 11.9456 20.6869C12.0269 20.6869 12.1099 20.6869 12.1924 20.6822C14.2828 20.6109 16.0485 19.7624 17.4398 18.1608C17.463 18.1339 17.4857 18.1064 17.5083 18.0789C17.5461 18.0328 17.5856 17.9854 17.6297 17.9374C17.6998 17.8573 17.7857 17.7927 17.8818 17.7476C17.9779 17.7026 18.0823 17.678 18.1883 17.6755C18.3575 17.6766 18.5207 17.7388 18.6482 17.8509C18.7237 17.9138 18.7857 17.9916 18.8303 18.0795C18.8749 18.1673 18.9013 18.2635 18.9077 18.362C18.9131 18.4595 18.8986 18.5571 18.8651 18.6488C18.8317 18.7405 18.78 18.8244 18.7132 18.8952C18.6493 18.9648 18.5855 19.0356 18.5222 19.1057C18.204 19.4566 17.8753 19.822 17.5031 20.1372C16 21.4229 14.096 22.1358 12.1238 22.151H12.1186L12.1169 22.1522Z" fill="#BBBFC2"/>
<path id="Vector_5" d="M17.8846 6.97598C17.7016 6.97347 17.5263 6.90141 17.3939 6.77424C17.3062 6.69472 17.2197 6.61227 17.1384 6.53274C16.9961 6.39533 16.862 6.2661 16.7186 6.14857C15.397 5.06389 13.878 4.51131 12.2034 4.51131C11.9769 4.51131 11.744 4.52125 11.5106 4.54113C10.644 4.61923 9.79932 4.85875 9.01957 5.2475C8.89177 5.31619 8.74979 5.35383 8.60497 5.35743C8.46802 5.35739 8.33412 5.31671 8.21999 5.24048C8.11455 5.17446 8.02854 5.08127 7.97086 4.97055C7.91318 4.85983 7.88593 4.73561 7.89193 4.61072C7.90171 4.47239 7.94791 4.33917 8.02578 4.22479C8.10365 4.11041 8.21037 4.01898 8.33497 3.95991C8.98903 3.61492 9.69039 3.36977 10.4161 3.2325C10.8365 3.15706 11.2632 3.10853 11.5774 3.07228C11.6895 3.05941 11.7887 3.04831 11.8677 3.03778H11.8886H11.9095C14.5225 3.0793 16.6187 3.93184 18.316 5.64336C18.4306 5.75247 18.5197 5.88589 18.5767 6.03397C18.63 6.19083 18.6264 6.36163 18.5666 6.51608C18.5067 6.67053 18.3945 6.79865 18.2498 6.87774C18.1382 6.94101 18.0126 6.9748 17.8846 6.97598Z" fill="#BBBFC2"/>
<path id="Vector_6" d="M6.45755 19.8402C6.26346 19.8399 6.07714 19.7633 5.93839 19.6266C5.79963 19.4899 5.71943 19.3041 5.71488 19.1087C5.71291 18.9185 5.78454 18.7349 5.9146 18.597C6.04466 18.459 6.22294 18.3775 6.41168 18.3696H6.43955C6.63305 18.3712 6.81825 18.4491 6.95551 18.5864C7.09278 18.7238 7.17121 18.9097 7.17408 19.1046C7.17656 19.1989 7.16052 19.2927 7.12691 19.3808C7.09329 19.4688 7.04277 19.5493 6.9782 19.6177C6.91363 19.686 6.83629 19.7408 6.75064 19.779C6.66498 19.8172 6.57269 19.838 6.47905 19.8402H6.45755Z" fill="#BBBFC2"/>
<path id="Vector_7" d="M8.44359 13.2326H8.40931C8.0673 13.2174 7.70497 12.9789 7.71252 12.3555V12.3456V12.3357C7.8542 10.5815 8.69966 9.31842 10.2332 8.57523C10.3528 8.51481 10.4844 8.48262 10.6182 8.48108C10.7512 8.4806 10.8817 8.5185 10.9941 8.59031C11.1064 8.66212 11.196 8.76483 11.2522 8.88631C11.2945 8.96993 11.3198 9.06118 11.3266 9.15474C11.3335 9.2483 11.3219 9.3423 11.2923 9.43128C11.2549 9.53132 11.1981 9.6229 11.1254 9.70078C11.0526 9.77865 10.9653 9.84127 10.8684 9.88504C9.77504 10.4195 9.21702 11.275 9.16185 12.5006C9.14501 12.9227 8.84193 13.2326 8.44359 13.2326Z" fill="#BBBFC2"/>
<path id="Vector_8" d="M12.3152 9.64418C12.2182 9.64517 12.122 9.6266 12.0323 9.58954C11.9425 9.55248 11.861 9.49769 11.7926 9.42841C11.7252 9.35898 11.6723 9.27662 11.6371 9.18622C11.6019 9.09582 11.5851 8.99922 11.5877 8.90215C11.5901 8.71225 11.666 8.5308 11.7993 8.39646C11.9326 8.26212 12.1127 8.1855 12.3013 8.18292H12.3158C12.508 8.18259 12.6925 8.25839 12.8296 8.39395C12.9668 8.52951 13.0454 8.71394 13.0486 8.90741C13.0497 9.00288 13.0318 9.0976 12.9961 9.18605C12.9604 9.2745 12.9076 9.35491 12.8407 9.42256C12.772 9.49238 12.6901 9.54769 12.5999 9.58524C12.5096 9.62279 12.4129 9.64183 12.3152 9.64125V9.64418Z" fill="#BBBFC2"/>
</g>
<defs>
<clipPath id="clip0_1365_428">
<rect width="24" height="24" fill="white"/>
</clipPath>
</defs>
</svg>
