<svg width="22" height="22" viewBox="0 0 22 22" fill="none" xmlns="http://www.w3.org/2000/svg">
<g id="infor">
<path id="Vector" d="M21 11C21 5.47715 16.5228 1 11 1C5.47715 1 1 5.47715 1 11C1 16.5228 5.47715 21 11 21C16.5228 21 21 16.5228 21 11Z" stroke="#BBBFC2" stroke-width="2"/>
<path id="Vector_2" d="M11 15.75V10.75" stroke="#BBBFC2" stroke-width="2" stroke-linecap="round"/>
<g id="Vector_3">
<mask id="path-3-inside-1_1365_442" fill="white">
<path d="M11 6.25C11.5523 6.25 12 6.69772 12 7.25C12 7.80228 11.5523 8.25 11 8.25C10.4477 8.25 10 7.80228 10 7.25C10 6.69772 10.4477 6.25 11 6.25Z"/>
</mask>
<path d="M11 6.25C11.5523 6.25 12 6.69772 12 7.25C12 7.80228 11.5523 8.25 11 8.25C10.4477 8.25 10 7.80228 10 7.25C10 6.69772 10.4477 6.25 11 6.25Z" fill="#BBBFC2"/>
<path d="M10 7.25C10 7.80228 10.4477 8.25 11 8.25V4.25C12.6569 4.25 14 5.59315 14 7.25H10ZM11 8.25C11.5523 8.25 12 7.80228 12 7.25H8C8 5.59315 9.34315 4.25 11 4.25V8.25ZM12 7.25C12 6.69772 11.5523 6.25 11 6.25V10.25C9.34315 10.25 8 8.90685 8 7.25H12ZM11 6.25C10.4477 6.25 10 6.69772 10 7.25H14C14 8.90685 12.6569 10.25 11 10.25V6.25Z" fill="#BBBFC2" mask="url(#path-3-inside-1_1365_442)"/>
</g>
</g>
</svg>
