<svg width="21" height="23" viewBox="0 0 21 23" fill="none" xmlns="http://www.w3.org/2000/svg">
<g id="moon">
<path id="Vector" d="M18.0376 16.8017C16.2889 16.7908 14.5745 16.3047 13.0702 15.3934C11.5659 14.4821 10.3258 13.1783 9.47711 11.6158C8.62837 10.0532 8.20154 8.288 8.24036 6.50124C8.27114 5.08475 8.59371 3.6951 9.18236 2.42138C9.36259 2.03138 9.03809 1.58039 8.62657 1.70381C6.6475 2.29731 4.89045 3.51377 3.61438 5.19372C2.11221 7.17135 1.38415 9.64965 1.57203 12.1459C1.75991 14.6421 2.85028 16.9774 4.63073 18.697C6.41119 20.4165 8.75421 21.3972 11.2034 21.4478C12.879 21.4522 14.5273 21.014 15.9885 20.1757C17.1397 19.5152 18.144 18.624 18.9432 17.5595C19.1989 17.219 18.8966 16.76 18.4715 16.7853C18.327 16.7939 18.1824 16.7994 18.0376 16.8017Z" stroke="#BBBFC2" stroke-width="2" stroke-linecap="round" stroke-linejoin="round"/>
</g>
</svg>
