<svg width="124" height="117" viewBox="0 0 124 117" fill="none" xmlns="http://www.w3.org/2000/svg">
<path d="M0.792568 113.967C1.40013 113.032 2.26164 112.738 3.36424 112.77C5.4055 112.829 7.44993 112.786 9.58121 112.786V90.4142C7.38243 89.9841 7.14774 89.6834 7.14452 87.3294V83.6983C7.14452 81.3443 7.33745 81.1115 9.60695 80.5877V58.3867C7.64283 57.8952 7.35673 57.5234 7.35673 55.454C7.35673 54.1218 7.35673 52.7907 7.35673 51.4607C7.35673 49.3945 7.62349 49.0517 9.62939 48.5214V26.3237C9.37345 26.2521 9.11376 26.1949 8.85149 26.1524C7.74567 26.0327 7.19268 25.3505 7.16697 24.2996C7.12196 22.3595 7.1091 20.4194 7.16697 18.4794C7.20876 17.2183 7.72639 16.8626 9.668 16.4681V12.1644C9.668 8.89862 9.668 5.62959 9.668 2.3638C9.668 0.7794 10.2755 0.1715 11.8539 0.1715C19.1542 0.1715 26.4514 0.1715 33.7517 0.1521C34.9797 0.1521 35.6804 0.656522 36.0887 1.79147C37.7764 6.39915 39.5218 10.9874 41.1999 15.6016C41.4763 16.3614 41.8106 16.6686 42.6529 16.646C45.096 16.5845 47.5455 16.6136 49.9918 16.646C51.5541 16.646 52.1649 17.2603 52.1938 18.8512C52.2228 20.4421 52.1938 21.9974 52.1938 23.5688C52.1938 25.6415 51.7052 26.1297 49.651 26.1556C49.3296 26.1556 49.0307 26.2009 48.571 26.2332C48.7253 26.7312 48.8314 27.145 48.9792 27.5427C51.4416 34.2263 53.9265 40.9002 56.3535 47.5902C56.6524 48.4212 57.0511 48.6734 57.8997 48.6605C61.3908 48.612 64.8786 48.6411 68.3664 48.6411C68.688 48.6281 69.01 48.6346 69.3308 48.6605C70.4495 48.793 71.1245 49.5529 71.0667 50.6006C71.0088 51.5706 70.324 52.2561 69.2214 52.269C66.1354 52.3046 63.0463 52.2981 59.9603 52.3014L11.0309 52.3466V54.5292H114.132V52.2852H77.4219C75.5767 52.2852 74.6991 51.7032 74.6926 50.4938C74.6862 49.2845 75.6024 48.654 77.409 48.654H115.187C117.296 48.654 117.826 49.1875 117.836 51.2893C117.836 52.6635 117.836 54.0345 117.836 55.4055C117.836 57.7012 117.514 58.0634 115.203 58.3512V80.5521C117.633 81.3572 117.633 81.3572 117.633 84.0054C117.633 85.3376 117.617 86.6666 117.633 87.9988C117.652 89.2533 117.17 90.1037 115.839 90.3527V112.803C117.591 112.803 119.334 112.803 121.079 112.803C121.598 112.774 122.119 112.811 122.629 112.913C123.051 112.994 123.425 113.238 123.671 113.594C123.916 113.949 124.013 114.387 123.94 114.814C123.919 115.223 123.749 115.611 123.463 115.903C123.177 116.195 122.794 116.371 122.388 116.398C121.989 116.437 121.588 116.447 121.189 116.431C81.9705 116.431 42.7525 116.431 3.53454 116.431C2.38051 116.431 1.38083 116.311 0.786133 115.176L0.792568 113.967ZM113.988 84.4711H10.8317V86.6472C13.1559 86.6472 15.3963 86.6472 17.6401 86.6472C19.2474 86.6472 20.8547 86.6084 22.462 86.6698C22.7045 86.6655 22.9453 86.7122 23.1688 86.8068C23.3923 86.9015 23.5937 87.042 23.7601 87.2194C23.9265 87.3969 24.0543 87.6073 24.1352 87.8373C24.2162 88.0672 24.2484 88.3117 24.23 88.5549C24.185 89.5573 23.5164 90.2008 22.4203 90.2654C21.9799 90.2945 21.5394 90.2654 21.0958 90.2654H13.3583V94.1326C13.5673 94.1844 13.7538 94.249 13.9466 94.2781C18.6496 94.9507 21.2887 97.961 21.3145 102.708C21.3145 105.21 21.3145 107.71 21.3145 110.209V112.702H24.9984C25.0372 112.598 25.0653 112.489 25.082 112.379C25.082 108.994 25.0819 105.605 25.1076 102.216C25.1026 100.241 25.8308 98.3344 27.1495 96.8704C28.4683 95.4063 30.2826 94.49 32.2376 94.3008C34.2117 94.0807 36.1953 94.6211 37.7891 95.8132C39.3828 97.0054 40.4684 98.7607 40.8271 100.726C40.9522 101.481 41.0048 102.246 40.9845 103.012C41.0038 106.226 40.9845 109.443 40.9845 112.712H44.842C44.842 109.378 44.8195 106.122 44.842 102.863C44.8388 101.937 44.9468 101.014 45.1635 100.115C46.1857 96.2344 49.8278 93.8546 53.8846 94.3299C55.7375 94.5568 57.448 95.4449 58.7051 96.8327C59.9622 98.2206 60.6824 100.016 60.7349 101.893C60.8217 105.075 60.7638 108.263 60.7702 111.451V112.744H64.6664V111.383C64.6664 108.473 64.6664 105.563 64.6664 102.672C64.6664 100.538 65.2289 98.6142 66.6562 96.9942C67.71 95.7913 69.0975 94.9329 70.6402 94.5295C72.1829 94.1262 73.8103 94.1963 75.3131 94.7308C78.4698 95.8658 80.5111 98.7597 80.585 102.378C80.6493 105.401 80.6012 108.425 80.6012 111.451V112.712H84.4907C84.4907 109.155 84.4554 105.679 84.4907 102.216C84.4825 100.197 85.2446 98.2506 86.6201 96.7793C87.9955 95.3079 89.8797 94.4231 91.8843 94.3072C93.8659 94.1439 95.8346 94.7503 97.3855 96.0018C98.9364 97.2533 99.9519 99.0548 100.223 101.036C100.49 102.853 100.364 104.735 100.384 106.588C100.403 108.628 100.384 110.672 100.384 112.731H104.122C104.122 112.033 104.122 111.438 104.122 110.827C104.142 107.762 104.048 104.683 104.206 101.634C104.389 98.1292 106.861 95.3225 110.236 94.5013C110.85 94.3525 111.487 94.3008 112.127 94.2005V90.3204H30.8972C30.4159 90.3415 29.9338 90.3317 29.4537 90.2913C29.0468 90.2713 28.6622 90.0984 28.3759 89.8068C28.0896 89.5152 27.9223 89.1262 27.9075 88.7166C27.8298 88.2917 27.9212 87.8531 28.1616 87.4951C28.4021 87.1372 28.7725 86.8884 29.1933 86.8024C29.702 86.7 30.2218 86.6641 30.7396 86.6957H113.975L113.988 84.4711ZM44.858 80.6879C44.858 77.2928 44.8324 74.027 44.8742 70.7644C44.8703 69.7987 44.9924 68.8366 45.2374 67.9028C45.7578 66.1046 46.8916 64.5483 48.4396 63.5076C49.9875 62.4668 51.8506 62.008 53.7014 62.2119C55.5943 62.4178 57.3493 63.3054 58.6426 64.7109C59.9359 66.1163 60.6802 67.9448 60.7382 69.859C60.8186 73.044 60.7607 76.2322 60.7735 79.4204C60.7735 79.8407 60.8186 80.2643 60.8379 80.6491H74.2652C74.1077 80.1511 74.0047 79.7728 73.8697 79.4042C71.433 72.7983 68.9675 66.202 66.5791 59.5799C66.2223 58.5904 65.8075 58.238 64.7274 58.238C48.048 58.2789 31.3665 58.2887 14.6828 58.2671H13.339V62.0761C18.8585 62.5999 21.6359 66.603 21.3338 71.4143C21.1666 74.0658 21.3016 76.7366 21.308 79.3978C21.308 79.8213 21.3499 80.2482 21.3724 80.6911H25.0883V79.3266C25.0883 76.2193 25.0529 73.1119 25.0883 70.0078C25.1294 67.927 25.9774 65.9448 27.4512 64.484C28.925 63.0233 30.9079 62.1998 32.9769 62.1893C35.067 62.1754 37.0781 62.992 38.5728 64.4615C40.0675 65.9311 40.9249 67.9348 40.9588 70.0369C41.007 73.141 40.9588 76.2484 40.9588 79.3557C40.9588 79.7825 40.9588 80.2126 40.9588 80.7008L44.858 80.6879ZM111.474 58.3997H69.9673C72.6804 65.7461 75.3324 72.9502 78.0198 80.1415C78.0913 80.2896 78.1963 80.4188 78.3263 80.5187C78.4564 80.6187 78.6079 80.6866 78.7688 80.717C80.4018 80.7687 82.0348 80.7429 83.806 80.7429V79.3298C83.806 76.2645 83.7835 73.1863 83.806 70.1339C83.8478 65.607 87.3003 62.1214 91.7075 62.102C96.1758 62.0793 99.6507 65.5747 99.6925 70.1695C99.7182 73.2348 99.6925 76.313 99.6925 79.3622V80.6556H103.479V79.2426C103.479 76.1384 103.444 73.0311 103.499 69.927C103.515 68.1375 104.135 66.4066 105.258 65.0183C106.38 63.63 107.939 62.6667 109.677 62.2863C110.252 62.1537 110.844 62.1052 111.461 62.0147L111.474 58.3997ZM25.0883 48.5894V47.3445C25.0883 44.2403 25.0594 41.1362 25.0883 38.0321C25.1397 34.0226 28.2515 30.5951 32.0769 30.2201C36.3105 29.8256 39.9205 32.3994 40.7563 36.5091C40.9281 37.5778 40.9959 38.6607 40.9588 39.7426C40.9845 42.6721 40.9588 45.6049 40.9588 48.5861H52.8141C52.6695 48.1205 52.5635 47.7422 52.4285 47.3736C49.9661 40.6965 47.4813 34.0258 45.0607 27.3261C44.7392 26.4175 44.3181 26.12 43.3473 26.1233C33.771 26.1653 24.1916 26.1491 14.6153 26.1491H13.2715V30.1101C18.566 30.7051 21.2887 33.7478 21.308 38.8825C21.308 40.4152 21.308 41.9478 21.308 43.4773V48.5926L25.0883 48.5894ZM37.6574 16.5781C37.5159 16.1157 37.4323 15.7697 37.3102 15.4399C35.989 11.8831 34.6389 8.36509 33.3563 4.80505C33.0798 4.04519 32.7456 3.76711 31.913 3.77358C26.0593 3.81561 20.2054 3.79622 14.3485 3.79945C14.0077 3.79945 13.6637 3.84794 13.3679 3.87058V7.98679C17.0679 7.98679 20.6716 7.98679 24.2784 7.98679C25.606 7.98679 26.3741 8.70785 26.3741 9.80723C26.3741 10.9066 25.6349 11.5953 24.288 11.605C21.2791 11.605 18.2735 11.605 15.2647 11.605H13.3648V16.5684L37.6574 16.5781ZM68.2732 112.683H76.9912C76.9912 109.252 77.0137 105.912 76.9912 102.575C76.9655 99.775 75.1138 97.8252 72.5872 97.8576C70.0605 97.8899 68.3214 99.7977 68.2892 102.546C68.2571 105.489 68.2892 108.434 68.2892 111.377L68.2732 112.683ZM96.0954 80.6717C96.0954 77.0826 96.1147 73.6196 96.0954 70.1565C96.0729 67.5698 94.1923 65.6879 91.7107 65.7137C89.2869 65.7364 87.4546 67.6086 87.4289 70.1436C87.4 72.8823 87.4289 75.6243 87.4289 78.3631V80.6717H96.0954ZM37.3745 80.6717C37.3745 77.1149 37.3938 73.6907 37.3745 70.2729C37.3585 67.6862 35.4683 65.7784 33.0188 65.7913C30.5693 65.8043 28.7273 67.7314 28.708 70.3182C28.6887 73.4547 28.708 76.5943 28.708 79.734C28.7228 80.048 28.754 80.361 28.8012 80.6717H37.3745ZM57.1538 80.6556C57.1538 77.0988 57.1892 73.6357 57.1538 70.1759C57.1612 69.6001 57.054 69.0285 56.8383 68.495C56.6227 67.9615 56.3032 67.4768 55.8984 67.0694C55.4937 66.6621 55.0121 66.3402 54.4819 66.123C53.9516 65.9057 53.3835 65.7973 52.811 65.8043C50.4129 65.8043 48.542 67.6926 48.4809 70.2277C48.4294 72.2421 48.4809 74.2598 48.4809 76.2742C48.4809 77.7164 48.4809 79.1552 48.4809 80.6717L57.1538 80.6556ZM57.1538 112.715C57.1538 109.175 57.1828 105.75 57.1538 102.329C57.1249 99.7427 55.328 97.9029 52.9074 97.8543C50.4868 97.8058 48.542 99.7201 48.4809 102.3C48.4391 103.953 48.4809 105.605 48.4809 107.257V112.715H57.1538ZM37.3714 112.715C37.3714 109.159 37.3939 105.725 37.3714 102.3C37.3521 99.775 35.4973 97.8834 33.0863 97.8543C30.6754 97.8252 28.7273 99.7492 28.708 102.329C28.6823 105.434 28.708 108.541 28.708 111.645C28.708 111.994 28.7498 112.343 28.7755 112.715H37.3714ZM96.7609 112.715C96.7609 109.019 96.8541 105.434 96.7288 101.857C96.6452 99.4937 94.5557 97.767 92.2605 97.8641C91.1456 97.8969 90.0874 98.366 89.3112 99.1716C88.5349 99.9771 88.1018 101.056 88.104 102.177C88.0718 103.384 88.104 104.596 88.104 105.805V112.715H96.7609ZM37.3199 48.5861C37.3392 48.224 37.3714 47.9103 37.3714 47.5967C37.3714 44.5378 37.3714 41.4822 37.3714 38.4234C37.3714 35.7137 35.5615 33.806 33.0477 33.7995C30.5339 33.793 28.7113 35.6943 28.6984 38.391C28.6824 41.4919 28.6984 44.5895 28.6984 47.6872C28.7121 47.9881 28.7409 48.2882 28.7851 48.5861H37.3199ZM48.5357 20.3483H10.8317V22.4274H48.5357V20.3483ZM112.155 97.9093C109.452 98.0419 107.819 99.678 107.755 102.323C107.697 104.819 107.755 107.319 107.739 109.815V112.677H112.155V97.9093ZM107.099 80.6297H111.455V65.8399C110.914 65.8031 110.371 65.8761 109.858 66.0545C109.346 66.2329 108.875 66.513 108.472 66.8782C108.069 67.2435 107.743 67.6864 107.514 68.1807C107.285 68.6749 107.157 69.2105 107.138 69.7556C107.067 71.3238 107.112 72.8953 107.109 74.4667C107.099 76.5103 107.102 78.5538 107.102 80.6426L107.099 80.6297ZM17.6916 80.6588C17.6916 77.3122 17.6916 74.0949 17.6916 70.8808C17.7008 70.4384 17.6857 69.9958 17.6466 69.5551C17.5246 68.5086 17.0104 67.5482 16.2088 66.8699C15.4072 66.1916 14.3786 65.8463 13.3326 65.9045V80.6588H17.6916ZM17.653 112.731C17.653 108.952 17.7365 105.295 17.6208 101.647C17.5501 99.4711 15.5924 97.9061 13.3679 97.9643V112.731H17.653ZM13.3423 33.89V48.5408H17.6723C17.6723 44.8967 17.7302 41.3593 17.6499 37.8219C17.6334 37.2769 17.5077 36.7408 17.2804 36.2458C17.053 35.7507 16.7287 35.307 16.3268 34.941C15.9249 34.5751 15.4536 34.2946 14.9413 34.1162C14.429 33.9378 13.8863 33.8653 13.3455 33.903L13.3423 33.89Z" fill="white"/>
</svg>
