<svg width="16" height="24" viewBox="0 0 16 24" fill="none" xmlns="http://www.w3.org/2000/svg">
<g id="suitcase">
<path id="Vector 19" d="M10.5 7.5V18.5" stroke="#BBBFC2" stroke-width="2" stroke-linecap="round"/>
<path id="Vector 17" d="M5.5 7.5V18.5" stroke="#BBBFC2" stroke-width="2" stroke-linecap="round"/>
<path id="Vector 4" d="M1.25 6.5L1.25 19.5C1.25 20.6046 2.14543 21.5 3.25 21.5H12.75C13.8546 21.5 14.75 20.6046 14.75 19.5L14.75 6.5C14.75 5.39543 13.8546 4.5 12.75 4.5H3.25C2.14543 4.5 1.25 5.39543 1.25 6.5Z" stroke="#BBBFC2" stroke-width="2"/>
<path id="Vector" d="M4 22C4 22.2761 3.77614 22.5 3.5 22.5C3.22386 22.5 3 22.2761 3 22" stroke="#BBBFC2" stroke-width="2"/>
<path id="Vector_2" d="M13 22C13 22.2761 12.7761 22.5 12.5 22.5C12.2239 22.5 12 22.2761 12 22" stroke="#BBBFC2" stroke-width="2"/>
<path id="Vector_3" d="M5.5 4.5L5.5 2.5C5.5 1.94771 5.94772 1.5 6.5 1.5L8 1.5L9.5 1.5C10.0523 1.5 10.5 1.94771 10.5 2.5L10.5 4.5" stroke="#BBBFC2" stroke-width="2" stroke-linecap="round"/>
</g>
</svg>
