<svg xmlns="http://www.w3.org/2000/svg" viewBox="0 0 40 40" id="tripadvisor"><path d="M27 18.93a2.48 2.48 0 1 0 2.47 2.47A2.48 2.48 0 0 0 27 18.93Zm4.74-2.68L34 13.76h-5.1A15.71 15.71 0 0 0 20 11a16 16 0 0 0-9 2.75H6l2.24 2.45a6.22 6.22 0 0 0-.88 1 7 7 0 0 0 10.36 9.33L20 29l2.23-2.44a7 7 0 0 0 10-9.78 6.26 6.26 0 0 0-.52-.53ZM13 26.12a4.72 4.72 0 1 1 4.72-4.72A4.72 4.72 0 0 1 13 26.12Zm7-4.72c0-3.39-2.28-5.86-5.22-7A11.62 11.62 0 0 1 20 13.32a11.39 11.39 0 0 1 5.19 1.06A7.84 7.84 0 0 0 20 21.4Zm7 4.75a4.72 4.72 0 1 1 4.72-4.72A4.72 4.72 0 0 1 27 26.15ZM15.47 21.4A2.47 2.47 0 1 1 13 18.93a2.47 2.47 0 0 1 2.47 2.47Z"></path></svg>