<svg width="24" height="24" viewBox="0 0 24 24" fill="none" xmlns="http://www.w3.org/2000/svg">
<g id="akar-icons:youtube-fill" clip-path="url(#clip0_1398_2130)">
<g id="Group">
<g id="Group_2">
<path id="Vector" d="M23.5001 6.50695C23.3642 6.02219 23.0995 5.5833 22.7341 5.23695C22.3584 4.87996 21.8979 4.62459 21.3961 4.49495C19.5181 3.99995 11.9941 3.99995 11.9941 3.99995C8.85746 3.96427 5.72156 4.12123 2.60413 4.46995C2.10232 4.60917 1.64269 4.87024 1.26613 5.22995C0.896129 5.58595 0.628129 6.02495 0.488129 6.50595C0.151822 8.3177 -0.0115791 10.1573 0.000128902 12C-0.0118711 13.841 0.151129 15.68 0.488129 17.494C0.625129 17.973 0.892129 18.41 1.26313 18.763C1.63413 19.116 2.09613 19.371 2.60413 19.506C4.50713 20 11.9941 20 11.9941 20C15.1348 20.0357 18.2747 19.8787 21.3961 19.53C21.8979 19.4003 22.3584 19.145 22.7341 18.788C23.0994 18.4417 23.3638 18.0027 23.4991 17.518C23.8442 15.7069 24.012 13.8665 24.0001 12.023C24.0261 10.1716 23.8585 8.32252 23.5001 6.50595V6.50695ZM9.60213 15.424V8.57695L15.8621 12.001L9.60213 15.424Z" fill="black"/>
</g>
</g>
</g>
<defs>
<clipPath id="clip0_1398_2130">
<rect width="24" height="24" fill="white"/>
</clipPath>
</defs>
</svg>
